<?xml version="1.0" encoding="iso-8859-1"?>
<!-- Generator: Adobe Illustrator 17.1.0, SVG Export Plug-In . SVG Version: 6.00 Build 0)  -->
<!DOCTYPE svg PUBLIC "-//W3C//DTD SVG 1.1//EN" "http://www.w3.org/Graphics/SVG/1.1/DTD/svg11.dtd">
<svg version="1.1" id="Capa_1" xmlns="http://www.w3.org/2000/svg" xmlns:xlink="http://www.w3.org/1999/xlink" x="0px" y="0px"
	 viewBox="0 0 455 455" style="enable-background:new 0 0 455 455;" xml:space="preserve">
<g>
	<path d="M342.337,98.9c-0.031-0.037-0.057-0.076-0.09-0.113c-0.445-0.504-0.946-0.926-1.481-1.281
		C310.441,71.049,270.811,55,227.5,55c-43.311,0-82.941,16.049-113.267,42.507c-0.534,0.355-1.035,0.777-1.48,1.281
		c-0.032,0.036-0.058,0.076-0.09,0.113C77.301,130.512,55,176.447,55,227.5s22.301,96.988,57.663,128.6
		c0.031,0.037,0.057,0.076,0.09,0.113c0.445,0.504,0.946,0.926,1.481,1.281C144.559,383.951,184.189,400,227.5,400
		c43.315,0,82.948-16.052,113.275-42.514c0.531-0.354,1.03-0.773,1.472-1.274c0.032-0.036,0.058-0.076,0.09-0.113
		C377.699,324.488,400,278.553,400,227.5S377.699,130.512,342.337,98.9z M317.414,220c-0.668-30.652-5.424-59.891-13.748-85.227
		c11.587-5.705,22.562-12.728,32.7-20.984c28.267,27.073,46.489,64.55,48.452,106.211H317.414z M292.544,107.473
		c-6.292-12.584-13.44-23.061-21.223-31.264c19.702,5.716,37.826,15.18,53.54,27.573c-8.261,6.504-17.104,12.129-26.39,16.819
		C296.621,116.06,294.646,111.676,292.544,107.473z M284.769,126.718c-15.803,6.169-32.597,9.785-49.769,10.601V70.822
		c16.318,3.553,31.764,18.631,44.128,43.36C281.13,118.186,283.009,122.374,284.769,126.718z M156.528,120.602
		c-9.286-4.69-18.129-10.315-26.39-16.819c15.714-12.393,33.838-21.857,53.54-27.573c-7.783,8.202-14.931,18.68-21.223,31.264
		C160.354,111.676,158.379,116.06,156.528,120.602z M175.872,114.182c12.364-24.729,27.81-39.807,44.128-43.36v66.497
		c-17.171-0.816-33.966-4.432-49.769-10.601C171.991,122.374,173.87,118.186,175.872,114.182z M220,152.334V220h-67.412
		c0.647-28.536,4.981-55.668,12.54-79.172C182.553,147.586,201.072,151.512,220,152.334z M220,235v67.666
		c-18.928,0.821-37.447,4.748-54.873,11.506c-7.559-23.505-11.893-50.636-12.54-79.172H220z M220,317.681v66.497
		c-16.318-3.553-31.764-18.631-44.128-43.36c-2.002-4.005-3.881-8.192-5.641-12.536C186.034,322.113,202.829,318.497,220,317.681z
		 M162.456,347.527c6.292,12.584,13.44,23.061,21.223,31.264c-19.702-5.716-37.826-15.18-53.54-27.573
		c8.261-6.504,17.104-12.129,26.39-16.819C158.379,338.94,160.354,343.324,162.456,347.527z M298.472,334.398
		c9.286,4.69,18.129,10.315,26.39,16.819c-15.714,12.393-33.838,21.857-53.54,27.573c7.783-8.202,14.931-18.68,21.223-31.264
		C294.646,343.324,296.621,338.94,298.472,334.398z M279.128,340.818c-12.364,24.729-27.81,39.807-44.128,43.36v-66.497
		c17.171,0.816,33.966,4.432,49.769,10.601C283.009,332.626,281.13,336.814,279.128,340.818z M235,302.666V235h67.412
		c-0.647,28.536-4.981,55.667-12.54,79.172C272.447,307.414,253.928,303.488,235,302.666z M235,220v-67.666
		c18.928-0.821,37.447-4.748,54.873-11.506c7.559,23.505,11.893,50.636,12.54,79.172H235z M118.635,113.789
		c10.138,8.256,21.113,15.279,32.7,20.984c-8.324,25.336-13.08,54.575-13.748,85.227H70.183
		C72.146,178.339,90.368,140.862,118.635,113.789z M70.183,235h67.403c0.668,30.652,5.424,59.891,13.748,85.227
		c-11.587,5.705-22.562,12.728-32.7,20.984C90.368,314.138,72.146,276.661,70.183,235z M336.365,341.211
		c-10.138-8.256-21.113-15.279-32.7-20.984c8.324-25.336,13.08-54.575,13.748-85.227h67.403
		C382.854,276.661,364.632,314.138,336.365,341.211z"/>
	<path d="M390.54,382.565c-0.004-0.057-0.003-0.114-0.008-0.171c-0.025-0.279-0.066-0.557-0.122-0.833
		c-0.011-0.053-0.027-0.105-0.039-0.159c-0.051-0.223-0.111-0.444-0.182-0.663c-0.024-0.072-0.05-0.144-0.075-0.215
		c-0.073-0.204-0.156-0.405-0.248-0.604c-0.03-0.064-0.058-0.129-0.089-0.192c-0.115-0.231-0.241-0.458-0.382-0.679
		c-0.014-0.022-0.026-0.046-0.04-0.068c-0.158-0.242-0.331-0.477-0.52-0.704c-0.009-0.011-0.016-0.024-0.026-0.035
		c-0.037-0.044-0.079-0.08-0.117-0.123c-0.106-0.121-0.209-0.244-0.325-0.36c-0.039-0.039-0.081-0.071-0.121-0.109
		c-0.072-0.069-0.146-0.133-0.22-0.199c-0.149-0.132-0.302-0.257-0.458-0.376c-0.069-0.052-0.138-0.104-0.209-0.154
		c-0.192-0.135-0.389-0.259-0.591-0.373c-0.041-0.023-0.079-0.049-0.12-0.071c-0.512-0.279-1.05-0.493-1.602-0.643
		c-0.058-0.016-0.117-0.028-0.176-0.043c-0.217-0.053-0.435-0.098-0.654-0.132c-0.077-0.012-0.153-0.024-0.23-0.033
		c-0.227-0.028-0.454-0.045-0.682-0.052c-0.057-0.002-0.114-0.008-0.172-0.008c-0.283-0.002-0.565,0.011-0.847,0.04
		c-0.015,0.002-0.03,0-0.045,0.002l-36.67,4.055c-4.117,0.455-7.085,4.162-6.63,8.279c0.456,4.117,4.17,7.087,8.279,6.63
		l13.469-1.489C277.318,460.242,154.62,455.141,77.24,377.76C37.104,337.624,15,284.261,15,227.5c0-4.142-3.358-7.5-7.5-7.5
		S0,223.358,0,227.5c0,60.767,23.664,117.897,66.633,160.866S166.733,455,227.5,455c51.836,0,101.016-17.231,141.027-48.963
		l-3.022,10.329c-1.163,3.976,1.117,8.142,5.092,9.305c0.704,0.206,1.413,0.304,2.11,0.304c3.246,0,6.237-2.124,7.195-5.396
		l10.345-35.356c0.005-0.018,0.01-0.035,0.015-0.053l0,0l0-0.001c0.079-0.27,0.138-0.544,0.186-0.82
		c0.014-0.083,0.024-0.166,0.036-0.249c0.028-0.199,0.048-0.398,0.059-0.598c0.005-0.091,0.011-0.182,0.013-0.273
		C390.561,383.007,390.554,382.786,390.54,382.565z"/>
	<path d="M388.367,66.633C345.397,23.664,288.267,0,227.5,0C175.664,0,126.484,17.231,86.473,48.963l3.022-10.329
		c1.163-3.976-1.117-8.142-5.092-9.305c-3.978-1.162-8.142,1.117-9.305,5.092L64.754,69.777c-0.005,0.018-0.01,0.035-0.015,0.053
		l0,0l0,0.001c-0.079,0.27-0.138,0.544-0.186,0.82c-0.014,0.083-0.024,0.166-0.036,0.249c-0.028,0.199-0.048,0.399-0.059,0.599
		c-0.005,0.091-0.011,0.181-0.013,0.272c-0.005,0.222,0.001,0.443,0.016,0.664c0.004,0.057,0.003,0.114,0.008,0.171
		c0.025,0.279,0.066,0.557,0.122,0.832c0.011,0.054,0.027,0.106,0.039,0.159c0.05,0.223,0.111,0.444,0.182,0.662
		c0.024,0.073,0.05,0.144,0.076,0.216c0.073,0.204,0.156,0.405,0.248,0.603c0.03,0.064,0.057,0.128,0.089,0.191
		c0.115,0.231,0.241,0.458,0.381,0.678c0.014,0.023,0.026,0.047,0.041,0.07c0.158,0.242,0.331,0.477,0.52,0.704
		c0.009,0.011,0.016,0.024,0.026,0.035c0.05,0.06,0.108,0.112,0.16,0.17c0.094,0.104,0.182,0.212,0.282,0.312
		c0.022,0.022,0.047,0.041,0.07,0.063c0.078,0.076,0.161,0.146,0.242,0.219c0.12,0.107,0.239,0.213,0.364,0.311
		c0.079,0.062,0.16,0.119,0.241,0.177c0.137,0.099,0.275,0.195,0.416,0.283c0.077,0.048,0.155,0.093,0.234,0.138
		c0.152,0.087,0.305,0.17,0.461,0.246c0.078,0.038,0.157,0.074,0.237,0.11c0.16,0.071,0.322,0.135,0.486,0.195
		c0.083,0.03,0.165,0.06,0.249,0.087c0.164,0.053,0.33,0.098,0.497,0.139c0.087,0.022,0.173,0.045,0.261,0.064
		c0.173,0.036,0.348,0.063,0.523,0.087c0.083,0.011,0.164,0.027,0.248,0.036c0.243,0.025,0.488,0.039,0.732,0.04
		c0.014,0,0.027,0.002,0.04,0.002c0.009,0,0.018-0.001,0.027-0.001c0.25-0.001,0.5-0.016,0.75-0.041
		c0.016-0.002,0.032-0.001,0.049-0.003l36.67-4.055c4.117-0.455,7.085-4.162,6.63-8.279c-0.456-4.117-4.167-7.079-8.279-6.63
		l-13.469,1.489C177.682-5.242,300.38-0.141,377.76,77.24c40.136,40.136,62.24,93.5,62.24,150.26c0,4.142,3.358,7.5,7.5,7.5
		s7.5-3.358,7.5-7.5C455,166.732,431.336,109.603,388.367,66.633z"/>
</g>
<g>
</g>
<g>
</g>
<g>
</g>
<g>
</g>
<g>
</g>
<g>
</g>
<g>
</g>
<g>
</g>
<g>
</g>
<g>
</g>
<g>
</g>
<g>
</g>
<g>
</g>
<g>
</g>
<g>
</g>
</svg>
